<mxfile host="app.diagrams.net" modified="2023-05-15T01:23:59.708Z" agent="Mozilla/5.0 (Windows NT 10.0; Win64; x64) AppleWebKit/537.36 (KHTML, like Gecko) Chrome/113.0.0.0 Safari/537.36 Edg/113.0.1774.35" etag="jtYyc8p5l5RJUWlFfQld" version="21.2.9" type="github">
  <diagram id="C5RBs43oDa-KdzZeNtuy" name="Page-1">
    <mxGraphModel dx="1117" dy="549" grid="1" gridSize="10" guides="1" tooltips="1" connect="1" arrows="1" fold="1" page="1" pageScale="1" pageWidth="827" pageHeight="1169" math="0" shadow="0">
      <root>
        <mxCell id="WIyWlLk6GJQsqaUBKTNV-0" />
        <mxCell id="WIyWlLk6GJQsqaUBKTNV-1" parent="WIyWlLk6GJQsqaUBKTNV-0" />
        <mxCell id="x2LklSH2RY090t5d1rxW-6" style="edgeStyle=orthogonalEdgeStyle;rounded=0;orthogonalLoop=1;jettySize=auto;html=1;exitX=0.5;exitY=1;exitDx=0;exitDy=0;entryX=0.5;entryY=0;entryDx=0;entryDy=0;" edge="1" parent="WIyWlLk6GJQsqaUBKTNV-1" source="WIyWlLk6GJQsqaUBKTNV-3" target="WIyWlLk6GJQsqaUBKTNV-7">
          <mxGeometry relative="1" as="geometry" />
        </mxCell>
        <mxCell id="WIyWlLk6GJQsqaUBKTNV-3" value="插件通过adb install安装" style="rounded=1;whiteSpace=wrap;html=1;fontSize=12;glass=0;strokeWidth=1;shadow=0;" parent="WIyWlLk6GJQsqaUBKTNV-1" vertex="1">
          <mxGeometry x="60" y="101" width="120" height="40" as="geometry" />
        </mxCell>
        <mxCell id="x2LklSH2RY090t5d1rxW-1" style="edgeStyle=orthogonalEdgeStyle;rounded=0;orthogonalLoop=1;jettySize=auto;html=1;exitX=0.5;exitY=1;exitDx=0;exitDy=0;entryX=0.5;entryY=0;entryDx=0;entryDy=0;" edge="1" parent="WIyWlLk6GJQsqaUBKTNV-1" source="WIyWlLk6GJQsqaUBKTNV-7" target="WIyWlLk6GJQsqaUBKTNV-10">
          <mxGeometry relative="1" as="geometry" />
        </mxCell>
        <mxCell id="WIyWlLk6GJQsqaUBKTNV-7" value="ATAK收到PACKAGE_ADDED广播" style="rounded=1;whiteSpace=wrap;html=1;fontSize=12;glass=0;strokeWidth=1;shadow=0;" parent="WIyWlLk6GJQsqaUBKTNV-1" vertex="1">
          <mxGeometry x="50" y="170" width="140" height="40" as="geometry" />
        </mxCell>
        <mxCell id="x2LklSH2RY090t5d1rxW-55" style="edgeStyle=orthogonalEdgeStyle;rounded=0;orthogonalLoop=1;jettySize=auto;html=1;exitX=1;exitY=0.5;exitDx=0;exitDy=0;entryX=0.54;entryY=-0.026;entryDx=0;entryDy=0;entryPerimeter=0;" edge="1" parent="WIyWlLk6GJQsqaUBKTNV-1" source="WIyWlLk6GJQsqaUBKTNV-10" target="WIyWlLk6GJQsqaUBKTNV-11">
          <mxGeometry relative="1" as="geometry" />
        </mxCell>
        <mxCell id="x2LklSH2RY090t5d1rxW-59" value="是" style="edgeLabel;html=1;align=center;verticalAlign=middle;resizable=0;points=[];" vertex="1" connectable="0" parent="x2LklSH2RY090t5d1rxW-55">
          <mxGeometry x="-0.2824" y="-1" relative="1" as="geometry">
            <mxPoint as="offset" />
          </mxGeometry>
        </mxCell>
        <mxCell id="x2LklSH2RY090t5d1rxW-56" value="否" style="edgeStyle=orthogonalEdgeStyle;rounded=0;orthogonalLoop=1;jettySize=auto;html=1;exitX=0.5;exitY=1;exitDx=0;exitDy=0;entryX=0.5;entryY=0;entryDx=0;entryDy=0;" edge="1" parent="WIyWlLk6GJQsqaUBKTNV-1" source="WIyWlLk6GJQsqaUBKTNV-10" target="WIyWlLk6GJQsqaUBKTNV-12">
          <mxGeometry relative="1" as="geometry" />
        </mxCell>
        <mxCell id="WIyWlLk6GJQsqaUBKTNV-10" value="判断该应用&lt;br&gt;是否是插件" style="rhombus;whiteSpace=wrap;html=1;shadow=0;fontFamily=Helvetica;fontSize=12;align=center;strokeWidth=1;spacing=6;spacingTop=-4;" parent="WIyWlLk6GJQsqaUBKTNV-1" vertex="1">
          <mxGeometry x="60" y="240" width="120" height="60" as="geometry" />
        </mxCell>
        <mxCell id="x2LklSH2RY090t5d1rxW-4" value="" style="edgeStyle=orthogonalEdgeStyle;rounded=0;orthogonalLoop=1;jettySize=auto;html=1;" edge="1" parent="WIyWlLk6GJQsqaUBKTNV-1" source="WIyWlLk6GJQsqaUBKTNV-11" target="x2LklSH2RY090t5d1rxW-3">
          <mxGeometry relative="1" as="geometry" />
        </mxCell>
        <mxCell id="WIyWlLk6GJQsqaUBKTNV-11" value="调用loadPlugin&lt;br&gt;加载插件" style="rounded=1;whiteSpace=wrap;html=1;fontSize=12;glass=0;strokeWidth=1;shadow=0;" parent="WIyWlLk6GJQsqaUBKTNV-1" vertex="1">
          <mxGeometry x="250" y="101" width="120" height="40" as="geometry" />
        </mxCell>
        <mxCell id="WIyWlLk6GJQsqaUBKTNV-12" value="结束" style="rounded=1;whiteSpace=wrap;html=1;fontSize=12;glass=0;strokeWidth=1;shadow=0;" parent="WIyWlLk6GJQsqaUBKTNV-1" vertex="1">
          <mxGeometry x="95" y="347" width="50" height="40" as="geometry" />
        </mxCell>
        <mxCell id="x2LklSH2RY090t5d1rxW-8" value="" style="edgeStyle=orthogonalEdgeStyle;rounded=0;orthogonalLoop=1;jettySize=auto;html=1;" edge="1" parent="WIyWlLk6GJQsqaUBKTNV-1" source="x2LklSH2RY090t5d1rxW-3" target="x2LklSH2RY090t5d1rxW-7">
          <mxGeometry relative="1" as="geometry" />
        </mxCell>
        <mxCell id="x2LklSH2RY090t5d1rxW-9" value="" style="edgeStyle=orthogonalEdgeStyle;rounded=0;orthogonalLoop=1;jettySize=auto;html=1;" edge="1" parent="WIyWlLk6GJQsqaUBKTNV-1" source="x2LklSH2RY090t5d1rxW-3" target="x2LklSH2RY090t5d1rxW-7">
          <mxGeometry relative="1" as="geometry" />
        </mxCell>
        <mxCell id="x2LklSH2RY090t5d1rxW-3" value="获取PluginDescriptor" style="rounded=1;whiteSpace=wrap;html=1;fontSize=12;glass=0;strokeWidth=1;shadow=0;" vertex="1" parent="WIyWlLk6GJQsqaUBKTNV-1">
          <mxGeometry x="250" y="177" width="120" height="40" as="geometry" />
        </mxCell>
        <mxCell id="x2LklSH2RY090t5d1rxW-13" value="" style="edgeStyle=orthogonalEdgeStyle;rounded=0;orthogonalLoop=1;jettySize=auto;html=1;" edge="1" parent="WIyWlLk6GJQsqaUBKTNV-1" source="x2LklSH2RY090t5d1rxW-7" target="x2LklSH2RY090t5d1rxW-12">
          <mxGeometry relative="1" as="geometry" />
        </mxCell>
        <mxCell id="x2LklSH2RY090t5d1rxW-7" value="loadLifecyclePlugins加载LifeCycle类型Extension" style="whiteSpace=wrap;html=1;rounded=1;glass=0;strokeWidth=1;shadow=0;" vertex="1" parent="WIyWlLk6GJQsqaUBKTNV-1">
          <mxGeometry x="250" y="247" width="120" height="60" as="geometry" />
        </mxCell>
        <mxCell id="x2LklSH2RY090t5d1rxW-60" style="edgeStyle=orthogonalEdgeStyle;rounded=0;orthogonalLoop=1;jettySize=auto;html=1;entryX=1;entryY=0.5;entryDx=0;entryDy=0;" edge="1" parent="WIyWlLk6GJQsqaUBKTNV-1" source="x2LklSH2RY090t5d1rxW-12" target="WIyWlLk6GJQsqaUBKTNV-12">
          <mxGeometry relative="1" as="geometry" />
        </mxCell>
        <mxCell id="x2LklSH2RY090t5d1rxW-12" value="loadToolDescriptorPlugins加载ToolDescriptor类型Extension" style="whiteSpace=wrap;html=1;rounded=1;glass=0;strokeWidth=1;shadow=0;" vertex="1" parent="WIyWlLk6GJQsqaUBKTNV-1">
          <mxGeometry x="240" y="337" width="140" height="60" as="geometry" />
        </mxCell>
        <mxCell id="x2LklSH2RY090t5d1rxW-19" value="" style="edgeStyle=orthogonalEdgeStyle;rounded=0;orthogonalLoop=1;jettySize=auto;html=1;" edge="1" parent="WIyWlLk6GJQsqaUBKTNV-1" source="x2LklSH2RY090t5d1rxW-17" target="x2LklSH2RY090t5d1rxW-18">
          <mxGeometry relative="1" as="geometry" />
        </mxCell>
        <mxCell id="x2LklSH2RY090t5d1rxW-17" value="获取插件的Classloader，父Classloader为宿主的Classloader" style="rounded=1;whiteSpace=wrap;html=1;" vertex="1" parent="WIyWlLk6GJQsqaUBKTNV-1">
          <mxGeometry x="540" y="120" width="120" height="60" as="geometry" />
        </mxCell>
        <mxCell id="x2LklSH2RY090t5d1rxW-21" value="" style="edgeStyle=orthogonalEdgeStyle;rounded=0;orthogonalLoop=1;jettySize=auto;html=1;" edge="1" parent="WIyWlLk6GJQsqaUBKTNV-1" source="x2LklSH2RY090t5d1rxW-18" target="x2LklSH2RY090t5d1rxW-20">
          <mxGeometry relative="1" as="geometry" />
        </mxCell>
        <mxCell id="x2LklSH2RY090t5d1rxW-18" value="通过loadClass加载LifeCycle实现类，并实例化" style="whiteSpace=wrap;html=1;rounded=1;" vertex="1" parent="WIyWlLk6GJQsqaUBKTNV-1">
          <mxGeometry x="540" y="210" width="120" height="60" as="geometry" />
        </mxCell>
        <mxCell id="x2LklSH2RY090t5d1rxW-48" style="edgeStyle=orthogonalEdgeStyle;rounded=0;orthogonalLoop=1;jettySize=auto;html=1;exitX=1;exitY=0.5;exitDx=0;exitDy=0;entryX=0.468;entryY=0.006;entryDx=0;entryDy=0;entryPerimeter=0;" edge="1" parent="WIyWlLk6GJQsqaUBKTNV-1" source="x2LklSH2RY090t5d1rxW-20" target="x2LklSH2RY090t5d1rxW-24">
          <mxGeometry relative="1" as="geometry" />
        </mxCell>
        <mxCell id="x2LklSH2RY090t5d1rxW-20" value="创建LifecycleMapComponent入参为LifeCycle实现类" style="whiteSpace=wrap;html=1;rounded=1;" vertex="1" parent="WIyWlLk6GJQsqaUBKTNV-1">
          <mxGeometry x="530" y="300" width="140" height="60" as="geometry" />
        </mxCell>
        <mxCell id="x2LklSH2RY090t5d1rxW-29" value="" style="edgeStyle=orthogonalEdgeStyle;rounded=0;orthogonalLoop=1;jettySize=auto;html=1;" edge="1" parent="WIyWlLk6GJQsqaUBKTNV-1" source="x2LklSH2RY090t5d1rxW-24" target="x2LklSH2RY090t5d1rxW-28">
          <mxGeometry relative="1" as="geometry" />
        </mxCell>
        <mxCell id="x2LklSH2RY090t5d1rxW-24" value="调用registerMapComponent注册上步创建的MapComponent" style="whiteSpace=wrap;html=1;rounded=1;" vertex="1" parent="WIyWlLk6GJQsqaUBKTNV-1">
          <mxGeometry x="749" y="117" width="150" height="60" as="geometry" />
        </mxCell>
        <mxCell id="x2LklSH2RY090t5d1rxW-65" value="" style="edgeStyle=orthogonalEdgeStyle;rounded=0;orthogonalLoop=1;jettySize=auto;html=1;" edge="1" parent="WIyWlLk6GJQsqaUBKTNV-1" source="x2LklSH2RY090t5d1rxW-28" target="x2LklSH2RY090t5d1rxW-64">
          <mxGeometry relative="1" as="geometry" />
        </mxCell>
        <mxCell id="x2LklSH2RY090t5d1rxW-28" value="注册完之后MapComponent的onCreate方法会被调用" style="whiteSpace=wrap;html=1;rounded=1;" vertex="1" parent="WIyWlLk6GJQsqaUBKTNV-1">
          <mxGeometry x="749" y="210" width="150" height="60" as="geometry" />
        </mxCell>
        <mxCell id="x2LklSH2RY090t5d1rxW-35" value="" style="edgeStyle=orthogonalEdgeStyle;rounded=0;orthogonalLoop=1;jettySize=auto;html=1;" edge="1" parent="WIyWlLk6GJQsqaUBKTNV-1" target="x2LklSH2RY090t5d1rxW-34">
          <mxGeometry relative="1" as="geometry">
            <mxPoint x="125" y="850" as="sourcePoint" />
          </mxGeometry>
        </mxCell>
        <mxCell id="x2LklSH2RY090t5d1rxW-40" value="" style="edgeStyle=orthogonalEdgeStyle;rounded=0;orthogonalLoop=1;jettySize=auto;html=1;" edge="1" parent="WIyWlLk6GJQsqaUBKTNV-1" source="x2LklSH2RY090t5d1rxW-34" target="x2LklSH2RY090t5d1rxW-39">
          <mxGeometry relative="1" as="geometry" />
        </mxCell>
        <mxCell id="x2LklSH2RY090t5d1rxW-34" value="用插件包名和ToolDescriptor实现类名拼接Action" style="whiteSpace=wrap;html=1;rounded=1;" vertex="1" parent="WIyWlLk6GJQsqaUBKTNV-1">
          <mxGeometry x="50" y="880" width="150" height="60" as="geometry" />
        </mxCell>
        <mxCell id="x2LklSH2RY090t5d1rxW-37" style="edgeStyle=orthogonalEdgeStyle;rounded=0;orthogonalLoop=1;jettySize=auto;html=1;exitX=0.5;exitY=1;exitDx=0;exitDy=0;entryX=0.5;entryY=0;entryDx=0;entryDy=0;" edge="1" parent="WIyWlLk6GJQsqaUBKTNV-1" source="x2LklSH2RY090t5d1rxW-36">
          <mxGeometry relative="1" as="geometry">
            <mxPoint x="125" y="790" as="targetPoint" />
          </mxGeometry>
        </mxCell>
        <mxCell id="x2LklSH2RY090t5d1rxW-36" value="获取插件的Classloader，父Classloader为宿主的Classloader" style="rounded=1;whiteSpace=wrap;html=1;" vertex="1" parent="WIyWlLk6GJQsqaUBKTNV-1">
          <mxGeometry x="65" y="700" width="120" height="60" as="geometry" />
        </mxCell>
        <mxCell id="x2LklSH2RY090t5d1rxW-38" value="通过loadClass加载ToolDescriptor&lt;span style=&quot;background-color: initial;&quot;&gt;实现类，并实例化&lt;/span&gt;" style="whiteSpace=wrap;html=1;rounded=1;" vertex="1" parent="WIyWlLk6GJQsqaUBKTNV-1">
          <mxGeometry x="65" y="790" width="120" height="60" as="geometry" />
        </mxCell>
        <mxCell id="x2LklSH2RY090t5d1rxW-63" style="edgeStyle=orthogonalEdgeStyle;rounded=0;orthogonalLoop=1;jettySize=auto;html=1;exitX=1;exitY=0.5;exitDx=0;exitDy=0;entryX=0.5;entryY=0;entryDx=0;entryDy=0;" edge="1" parent="WIyWlLk6GJQsqaUBKTNV-1" source="x2LklSH2RY090t5d1rxW-39" target="x2LklSH2RY090t5d1rxW-41">
          <mxGeometry relative="1" as="geometry" />
        </mxCell>
        <mxCell id="x2LklSH2RY090t5d1rxW-39" value="自定义广播接收器，在接收器中调用ToolDescriptor的onActivate" style="whiteSpace=wrap;html=1;rounded=1;" vertex="1" parent="WIyWlLk6GJQsqaUBKTNV-1">
          <mxGeometry x="50" y="970" width="150" height="60" as="geometry" />
        </mxCell>
        <mxCell id="x2LklSH2RY090t5d1rxW-61" style="edgeStyle=orthogonalEdgeStyle;rounded=0;orthogonalLoop=1;jettySize=auto;html=1;exitX=0.5;exitY=1;exitDx=0;exitDy=0;entryX=0.5;entryY=0;entryDx=0;entryDy=0;" edge="1" parent="WIyWlLk6GJQsqaUBKTNV-1" source="x2LklSH2RY090t5d1rxW-41" target="x2LklSH2RY090t5d1rxW-43">
          <mxGeometry relative="1" as="geometry" />
        </mxCell>
        <mxCell id="x2LklSH2RY090t5d1rxW-41" value="创建注册广播，Action为拼接Action" style="whiteSpace=wrap;html=1;rounded=1;" vertex="1" parent="WIyWlLk6GJQsqaUBKTNV-1">
          <mxGeometry x="251" y="800" width="150" height="40" as="geometry" />
        </mxCell>
        <mxCell id="x2LklSH2RY090t5d1rxW-47" value="" style="edgeStyle=orthogonalEdgeStyle;rounded=0;orthogonalLoop=1;jettySize=auto;html=1;" edge="1" parent="WIyWlLk6GJQsqaUBKTNV-1" source="x2LklSH2RY090t5d1rxW-43" target="x2LklSH2RY090t5d1rxW-46">
          <mxGeometry relative="1" as="geometry" />
        </mxCell>
        <mxCell id="x2LklSH2RY090t5d1rxW-43" value="创建ActionMenuData" style="whiteSpace=wrap;html=1;rounded=1;" vertex="1" parent="WIyWlLk6GJQsqaUBKTNV-1">
          <mxGeometry x="269" y="887" width="114" height="40" as="geometry" />
        </mxCell>
        <mxCell id="x2LklSH2RY090t5d1rxW-46" value="发送ADD_NEW_TOOLS广播新增菜单项" style="whiteSpace=wrap;html=1;rounded=1;" vertex="1" parent="WIyWlLk6GJQsqaUBKTNV-1">
          <mxGeometry x="269" y="957" width="114" height="50" as="geometry" />
        </mxCell>
        <mxCell id="x2LklSH2RY090t5d1rxW-52" value="" style="edgeStyle=orthogonalEdgeStyle;rounded=0;orthogonalLoop=1;jettySize=auto;html=1;" edge="1" parent="WIyWlLk6GJQsqaUBKTNV-1" source="x2LklSH2RY090t5d1rxW-50" target="x2LklSH2RY090t5d1rxW-51">
          <mxGeometry relative="1" as="geometry" />
        </mxCell>
        <mxCell id="x2LklSH2RY090t5d1rxW-50" value="在宿主中点击菜单项会发送广播，Action是加载插件时拼接的" style="rounded=1;whiteSpace=wrap;html=1;" vertex="1" parent="WIyWlLk6GJQsqaUBKTNV-1">
          <mxGeometry x="620" y="580" width="120" height="60" as="geometry" />
        </mxCell>
        <mxCell id="x2LklSH2RY090t5d1rxW-51" value="调用ToolDescriptor实现类的onActivate" style="rounded=1;whiteSpace=wrap;html=1;" vertex="1" parent="WIyWlLk6GJQsqaUBKTNV-1">
          <mxGeometry x="620" y="680" width="120" height="40" as="geometry" />
        </mxCell>
        <mxCell id="x2LklSH2RY090t5d1rxW-64" value="LifeCycle实现类中的onCreate会被调用" style="whiteSpace=wrap;html=1;rounded=1;" vertex="1" parent="WIyWlLk6GJQsqaUBKTNV-1">
          <mxGeometry x="763.5" y="310" width="121" height="40" as="geometry" />
        </mxCell>
      </root>
    </mxGraphModel>
  </diagram>
</mxfile>
